<?xml version="1.0" encoding="UTF-8" standalone="no"?>
<!DOCTYPE svg PUBLIC "-//W3C//DTD SVG 1.1//EN" "http://www.w3.org/Graphics/SVG/1.1/DTD/svg11.dtd">
<!-- Created with Vectornator (http://vectornator.io/) -->
<svg height="100%" stroke-miterlimit="10" style="fill-rule:nonzero;clip-rule:evenodd;stroke-linecap:round;stroke-linejoin:round;" version="1.1" viewBox="0 0 100 100" width="100%" xml:space="preserve" xmlns="http://www.w3.org/2000/svg" xmlns:vectornator="http://vectornator.io" xmlns:xlink="http://www.w3.org/1999/xlink">
<defs/>
<g id="Untitled" vectornator:layerName="Untitled">
<g opacity="1" vectornator:layerName="g">
<path d="M53.9 25.4C53.9 16.6 60.4 9.1 69.1 7.8L69.3 7.8L72.1 4.3L72.8 3.4L71.6 3.4C59.5 3.4 49.6 13.3 49.6 25.4C49.6 32.3 52.9 38.9 58.4 43L59.1 43.5L60.2 39L60 38.8C56.1 35.4 53.9 30.5 53.9 25.4Z" fill="#000000" fill-rule="nonzero" opacity="1" stroke="none" vectornator:layerName="path"/>
<path d="M89.5 25.4C89.5 34.2 83 41.7 74.3 43L74 43L70.4 47.4L71.6 47.4C83.8 47.4 93.6 37.5 93.6 25.4C93.6 18.5 90.3 11.9 84.8 7.8L84.1 7.3L83 11.8L83.3 12C87.2 15.4 89.5 20.3 89.5 25.4Z" fill="#000000" fill-rule="nonzero" opacity="1" stroke="none" vectornator:layerName="path"/>
<path d="M59.8 29.8L66.8 29.8L62.7 46.2C62.2 48 64.6 49.2 65.7 47.7L84.9 23.9C85.8 22.8 85 21.1 83.5 21.1L76.5 21.1L80.6 4.7C81.1 2.9 78.7 1.7 77.6 3.2L58.4 26.9C57.5 28.1 58.3 29.8 59.8 29.8Z" fill="#000000" fill-rule="nonzero" opacity="1" stroke="none" vectornator:layerName="path"/>
<path d="M72.4 56.7C73.6 56.7 74.6 57.7 74.6 58.9L74.6 71.7L69.5 69.1C68.5 68.6 67.3 68.3 66.1 68.3C64.4 68.3 62.7 68.9 61.4 70L61.4 70L58.7 67.7L58.7 58.9C58.7 57.7 59.7 56.7 60.9 56.7C60.9 56.7 72.4 56.7 72.4 56.7Z" fill="#000000" fill-rule="nonzero" opacity="1" stroke="none" vectornator:layerName="path"/>
<path d="M66 85.3L67.1 84.4L73.9 87.8C74.1 87.9 74.4 88 74.7 88.1L74.7 95.3C74.7 96.5 73.7 97.5 72.5 97.5L61 97.5C59.8 97.5 58.8 96.5 58.8 95.3L58.8 86.5C59.6 86.8 60.5 87 61.4 87C63.1 86.9 64.7 86.4 66 85.3Z" fill="#000000" fill-rule="nonzero" opacity="1" stroke="none" vectornator:layerName="path"/>
<path d="M51.5 47L51.5 62.5C51 62.4 50.5 62.3 49.9 62.3C49.6 62.3 49.3 62.3 49 62.4L43.6 63.1L36.2 54.5C36 54.3 35.9 54.1 35.7 54L35.7 47C35.7 45.8 36.7 44.8 37.9 44.8L49.4 44.8C50.5 44.8 51.5 45.8 51.5 47Z" fill="#000000" fill-rule="nonzero" opacity="1" stroke="none" vectornator:layerName="path"/>
<path d="M41.5 78.3L47.6 77.5L51.5 80.9L51.5 95.4C51.5 96.6 50.5 97.6 49.3 97.6L37.8 97.6C36.6 97.6 35.6 96.6 35.6 95.4L35.6 76.5C36.9 77.7 38.7 78.3 40.4 78.3C40.8 78.3 41.2 78.3 41.5 78.3Z" fill="#000000" fill-rule="nonzero" opacity="1" stroke="none" vectornator:layerName="path"/>
<path d="M23.8 54.7L15.8 44.3C14.9 43.2 13.8 42.4 12.5 41.9L12.5 35.2C12.5 34 13.5 33 14.7 33L26.2 33C27.4 33 28.4 34 28.4 35.2L28.4 52.3C27.9 52.4 27.4 52.6 26.9 52.9L23.8 54.7Z" fill="#000000" fill-rule="nonzero" opacity="1" stroke="none" vectornator:layerName="path"/>
<path d="M21.9 71.7C23.2 71.7 24.5 71.4 25.6 70.7L28.4 69.1L28.4 95.3C28.4 96.5 27.4 97.5 26.2 97.5L14.7 97.5C13.5 97.5 12.5 96.5 12.5 95.3L12.5 64.2L16.1 68.8C17.5 70.6 19.6 71.7 21.9 71.7Z" fill="#000000" fill-rule="nonzero" opacity="1" stroke="none" vectornator:layerName="path"/>
<path d="M7.7 45.9C9.3 44.7 11.6 45 12.9 46.6L22.9 59.5L28.7 56.1C30.2 55.2 32.2 55.6 33.3 56.9L42.1 67L49.5 66.1C50.5 66 51.6 66.3 52.3 67L61.4 74.8L63.8 72.8C64.9 71.9 66.5 71.7 67.8 72.4L78.8 78C80.6 78.9 81.3 81.1 80.4 83C79.7 84.3 78.5 85 77.1 85C76.5 85 76 84.9 75.4 84.6L66.6 80L63.7 82.4C62.3 83.5 60.3 83.5 59 82.4L48.8 73.7L41 74.6C39.8 74.8 38.6 74.3 37.8 73.3L29.8 64L23.8 67.4C22.2 68.3 20.2 67.9 19 66.5L7 51C5.8 49.4 6.1 47.1 7.7 45.9Z" fill="#000000" fill-rule="nonzero" opacity="1" stroke="none" vectornator:layerName="path"/>
</g>
</g>
</svg>
